<mxfile host="app.diagrams.net" modified="2024-04-09T14:47:41.382Z" agent="Mozilla/5.0 (Windows NT 10.0; Win64; x64) AppleWebKit/537.36 (KHTML, like Gecko) Chrome/123.0.0.0 Safari/537.36" etag="o7ogL9Gg6YYPjzWmjSGx" version="24.2.3" type="device">
  <diagram name="Page-1" id="HRLRXmYDFZ2fSTGb3PjT">
    <mxGraphModel dx="248" dy="102" grid="1" gridSize="10" guides="1" tooltips="1" connect="1" arrows="1" fold="1" page="1" pageScale="1" pageWidth="850" pageHeight="1100" math="0" shadow="0">
      <root>
        <mxCell id="0" />
        <mxCell id="1" parent="0" />
        <mxCell id="5I1G4aQVOf2NT5Z5dqjz-1" value="" style="rounded=1;whiteSpace=wrap;html=1;" vertex="1" parent="1">
          <mxGeometry x="40" y="40" width="360" height="280" as="geometry" />
        </mxCell>
        <mxCell id="5I1G4aQVOf2NT5Z5dqjz-2" value="&lt;b&gt;&lt;font style=&quot;font-size: 14px;&quot;&gt;Desktop Application&lt;/font&gt;&lt;/b&gt;" style="text;html=1;align=center;verticalAlign=middle;whiteSpace=wrap;rounded=0;" vertex="1" parent="1">
          <mxGeometry x="40" y="60" width="360" height="20" as="geometry" />
        </mxCell>
        <mxCell id="5I1G4aQVOf2NT5Z5dqjz-3" value="&lt;b&gt;&lt;font style=&quot;font-size: 10px;&quot;&gt;JavaFX&lt;/font&gt;&lt;/b&gt;" style="text;html=1;align=center;verticalAlign=middle;whiteSpace=wrap;rounded=0;" vertex="1" parent="1">
          <mxGeometry x="40" y="40" width="360" height="20" as="geometry" />
        </mxCell>
        <mxCell id="5I1G4aQVOf2NT5Z5dqjz-5" value="" style="rounded=1;whiteSpace=wrap;html=1;" vertex="1" parent="1">
          <mxGeometry x="60" y="100" width="320" height="200" as="geometry" />
        </mxCell>
        <mxCell id="5I1G4aQVOf2NT5Z5dqjz-17" style="edgeStyle=orthogonalEdgeStyle;rounded=0;orthogonalLoop=1;jettySize=auto;html=1;exitX=0;exitY=0.25;exitDx=0;exitDy=0;entryX=1;entryY=0.25;entryDx=0;entryDy=0;" edge="1" parent="1" source="5I1G4aQVOf2NT5Z5dqjz-6" target="5I1G4aQVOf2NT5Z5dqjz-7">
          <mxGeometry relative="1" as="geometry" />
        </mxCell>
        <mxCell id="5I1G4aQVOf2NT5Z5dqjz-25" style="edgeStyle=orthogonalEdgeStyle;rounded=0;orthogonalLoop=1;jettySize=auto;html=1;exitX=0.75;exitY=0;exitDx=0;exitDy=0;entryX=0.75;entryY=1;entryDx=0;entryDy=0;" edge="1" parent="1" source="5I1G4aQVOf2NT5Z5dqjz-6" target="5I1G4aQVOf2NT5Z5dqjz-9">
          <mxGeometry relative="1" as="geometry" />
        </mxCell>
        <mxCell id="5I1G4aQVOf2NT5Z5dqjz-6" value="&lt;b&gt;Service&lt;/b&gt;" style="rounded=1;whiteSpace=wrap;html=1;" vertex="1" parent="1">
          <mxGeometry x="240" y="220" width="120" height="60" as="geometry" />
        </mxCell>
        <mxCell id="5I1G4aQVOf2NT5Z5dqjz-12" style="edgeStyle=orthogonalEdgeStyle;rounded=0;orthogonalLoop=1;jettySize=auto;html=1;exitX=0.75;exitY=0;exitDx=0;exitDy=0;entryX=0.75;entryY=1;entryDx=0;entryDy=0;" edge="1" parent="1" source="5I1G4aQVOf2NT5Z5dqjz-7" target="5I1G4aQVOf2NT5Z5dqjz-8">
          <mxGeometry relative="1" as="geometry" />
        </mxCell>
        <mxCell id="5I1G4aQVOf2NT5Z5dqjz-26" style="edgeStyle=orthogonalEdgeStyle;rounded=0;orthogonalLoop=1;jettySize=auto;html=1;exitX=1;exitY=0.75;exitDx=0;exitDy=0;entryX=0;entryY=0.75;entryDx=0;entryDy=0;" edge="1" parent="1" source="5I1G4aQVOf2NT5Z5dqjz-7" target="5I1G4aQVOf2NT5Z5dqjz-6">
          <mxGeometry relative="1" as="geometry" />
        </mxCell>
        <mxCell id="5I1G4aQVOf2NT5Z5dqjz-7" value="&lt;b&gt;Controller&lt;/b&gt;" style="rounded=1;whiteSpace=wrap;html=1;" vertex="1" parent="1">
          <mxGeometry x="80" y="220" width="120" height="60" as="geometry" />
        </mxCell>
        <mxCell id="5I1G4aQVOf2NT5Z5dqjz-11" style="edgeStyle=orthogonalEdgeStyle;rounded=0;orthogonalLoop=1;jettySize=auto;html=1;exitX=0.25;exitY=1;exitDx=0;exitDy=0;entryX=0.25;entryY=0;entryDx=0;entryDy=0;" edge="1" parent="1" source="5I1G4aQVOf2NT5Z5dqjz-8" target="5I1G4aQVOf2NT5Z5dqjz-7">
          <mxGeometry relative="1" as="geometry" />
        </mxCell>
        <mxCell id="5I1G4aQVOf2NT5Z5dqjz-8" value="&lt;b&gt;View&lt;/b&gt;" style="rounded=1;whiteSpace=wrap;html=1;" vertex="1" parent="1">
          <mxGeometry x="80" y="120" width="120" height="60" as="geometry" />
        </mxCell>
        <mxCell id="5I1G4aQVOf2NT5Z5dqjz-22" style="edgeStyle=orthogonalEdgeStyle;rounded=0;orthogonalLoop=1;jettySize=auto;html=1;exitX=0;exitY=0.25;exitDx=0;exitDy=0;entryX=1;entryY=0.25;entryDx=0;entryDy=0;" edge="1" parent="1" source="5I1G4aQVOf2NT5Z5dqjz-9" target="5I1G4aQVOf2NT5Z5dqjz-8">
          <mxGeometry relative="1" as="geometry" />
        </mxCell>
        <mxCell id="5I1G4aQVOf2NT5Z5dqjz-24" style="edgeStyle=orthogonalEdgeStyle;rounded=0;orthogonalLoop=1;jettySize=auto;html=1;exitX=0.25;exitY=1;exitDx=0;exitDy=0;entryX=0.25;entryY=0;entryDx=0;entryDy=0;" edge="1" parent="1" source="5I1G4aQVOf2NT5Z5dqjz-9" target="5I1G4aQVOf2NT5Z5dqjz-6">
          <mxGeometry relative="1" as="geometry" />
        </mxCell>
        <mxCell id="5I1G4aQVOf2NT5Z5dqjz-9" value="&lt;b&gt;Model&lt;/b&gt;" style="rounded=1;whiteSpace=wrap;html=1;" vertex="1" parent="1">
          <mxGeometry x="240" y="120" width="120" height="60" as="geometry" />
        </mxCell>
        <mxCell id="5I1G4aQVOf2NT5Z5dqjz-27" value="" style="shape=cylinder3;whiteSpace=wrap;html=1;boundedLbl=1;backgroundOutline=1;size=15;" vertex="1" parent="1">
          <mxGeometry x="520" y="190" width="80" height="120" as="geometry" />
        </mxCell>
        <mxCell id="5I1G4aQVOf2NT5Z5dqjz-30" value="&lt;b&gt;&lt;font style=&quot;font-size: 14px;&quot;&gt;Database&lt;/font&gt;&lt;/b&gt;" style="text;html=1;align=center;verticalAlign=middle;whiteSpace=wrap;rounded=0;" vertex="1" parent="1">
          <mxGeometry x="520" y="160" width="80" height="20" as="geometry" />
        </mxCell>
        <mxCell id="5I1G4aQVOf2NT5Z5dqjz-31" value="&lt;b&gt;&lt;font style=&quot;font-size: 10px;&quot;&gt;MySQL&lt;/font&gt;&lt;/b&gt;" style="text;html=1;align=center;verticalAlign=middle;whiteSpace=wrap;rounded=0;" vertex="1" parent="1">
          <mxGeometry x="520" y="140" width="80" height="20" as="geometry" />
        </mxCell>
        <mxCell id="5I1G4aQVOf2NT5Z5dqjz-34" value="" style="html=1;verticalAlign=bottom;endArrow=open;dashed=1;endSize=8;curved=0;rounded=0;" edge="1" parent="1">
          <mxGeometry relative="1" as="geometry">
            <mxPoint x="510" y="240" as="sourcePoint" />
            <mxPoint x="370" y="240" as="targetPoint" />
          </mxGeometry>
        </mxCell>
        <mxCell id="5I1G4aQVOf2NT5Z5dqjz-35" value="" style="html=1;verticalAlign=bottom;endArrow=open;dashed=1;endSize=8;curved=0;rounded=0;exitX=0.969;exitY=0.8;exitDx=0;exitDy=0;exitPerimeter=0;" edge="1" parent="1" source="5I1G4aQVOf2NT5Z5dqjz-5">
          <mxGeometry relative="1" as="geometry">
            <mxPoint x="420" y="250" as="sourcePoint" />
            <mxPoint x="510" y="260" as="targetPoint" />
          </mxGeometry>
        </mxCell>
        <mxCell id="5I1G4aQVOf2NT5Z5dqjz-36" value="&lt;span style=&quot;font-size: 10px;&quot;&gt;&lt;b&gt;Query&lt;/b&gt;&lt;/span&gt;" style="text;html=1;align=center;verticalAlign=middle;whiteSpace=wrap;rounded=0;" vertex="1" parent="1">
          <mxGeometry x="400" y="240" width="80" height="20" as="geometry" />
        </mxCell>
      </root>
    </mxGraphModel>
  </diagram>
</mxfile>
